<?xml version="1.0" standalone="no"?>
<!DOCTYPE svg PUBLIC "-//W3C//DTD SVG 20010904//EN"
 "http://www.w3.org/TR/2001/REC-SVG-20010904/DTD/svg10.dtd">
<svg version="1.0" xmlns="http://www.w3.org/2000/svg"
 width="512.000000pt" height="512.000000pt" viewBox="0 0 512.000000 512.000000"
 preserveAspectRatio="xMidYMid meet">
<metadata>
Created by potrace 1.14, written by Peter Selinger 2001-2017
</metadata>
<g transform="translate(0.000000,512.000000) scale(0.100000,-0.100000)"
fill="#000000" stroke="none">
<path d="M1592 4862 c-19 -14 -33 -56 -72 -201 -27 -101 -51 -185 -53 -187 -2
-2 -21 5 -43 15 -248 117 -506 204 -676 226 -82 11 -105 -21 -134 -195 -2 -14
-9 -47 -15 -75 -5 -27 -12 -60 -15 -73 l-5 -23 -62 34 c-165 92 -185 100 -218
88 -63 -22 -58 92 -59 -1573 l0 -1527 22 -24 c13 -14 73 -51 133 -82 124 -65
205 -108 415 -220 80 -43 183 -98 230 -123 47 -24 112 -59 145 -77 33 -18 101
-54 150 -80 50 -26 113 -60 140 -75 28 -15 95 -51 150 -80 55 -29 132 -70 170
-90 366 -195 470 -248 505 -256 19 -4 40 -9 45 -10 60 -16 150 -23 245 -20
222 9 203 1 765 301 429 229 831 443 920 490 61 32 115 61 120 65 6 4 73 41
150 81 77 40 163 86 190 101 28 15 64 34 80 41 17 8 39 26 48 40 16 25 17 131
17 1541 0 919 -4 1524 -9 1539 -6 16 -23 29 -46 37 -37 12 -56 5 -191 -71
l-34 -19 -14 33 c-8 17 -37 86 -66 152 -60 139 -62 142 -101 150 -29 7 -78 -8
-351 -106 -60 -21 -108 -35 -109 -31 0 4 -2 14 -4 22 -1 8 -6 35 -10 60 -13
91 -35 183 -46 196 -21 26 -72 27 -130 3 -217 -93 -487 -252 -650 -386 -251
-205 -463 -490 -535 -717 -10 -31 -20 -56 -23 -56 -3 0 -15 28 -25 63 -11 34
-24 73 -29 87 -6 14 -11 30 -12 35 -3 13 -61 139 -87 190 -135 261 -352 520
-578 692 -151 113 -192 130 -238 95z"/>
</g>
</svg>
